<svg width="26" height="26" viewBox="0 0 26 26" fill="none" xmlns="http://www.w3.org/2000/svg">
<path d="M9.26265 19.6156C9.26265 19.7076 9.15795 19.7811 9.02594 19.7811C8.87572 19.7949 8.77101 19.7214 8.77101 19.6156C8.77101 19.5236 8.87572 19.4501 9.00773 19.4501C9.1443 19.4363 9.26265 19.5099 9.26265 19.6156ZM7.84692 19.4087C7.81505 19.5007 7.9061 19.6064 8.04266 19.634C8.16102 19.68 8.29759 19.634 8.3249 19.542C8.35221 19.4501 8.26572 19.3443 8.12915 19.3029C8.0108 19.2708 7.87878 19.3167 7.84692 19.4087ZM9.85899 19.3305C9.72698 19.3627 9.63593 19.4501 9.64959 19.5558C9.66325 19.6478 9.7816 19.7076 9.91817 19.6754C10.0502 19.6432 10.1412 19.5558 10.1276 19.4639C10.1139 19.3765 9.99101 19.3167 9.85899 19.3305ZM12.8543 1.71054C6.54043 1.71054 1.71054 6.55236 1.71054 12.9299C1.71054 18.0293 4.88798 22.3929 9.42653 23.9286C10.0092 24.0344 10.2141 23.6712 10.2141 23.3723C10.2141 23.0872 10.2004 21.5146 10.2004 20.549C10.2004 20.549 7.01386 21.2387 6.34469 19.1788C6.34469 19.1788 5.82574 17.8407 5.07917 17.4959C5.07917 17.4959 4.03672 16.774 5.15201 16.7878C5.15201 16.7878 6.28551 16.8797 6.90916 17.9741C7.90609 19.749 9.57676 19.2386 10.2277 18.9351C10.3324 18.1994 10.6283 17.689 10.9561 17.3855C8.41139 17.1004 5.84395 16.728 5.84395 12.3046C5.84395 11.0401 6.18991 10.4056 6.91827 9.59631C6.79991 9.29743 6.41297 8.06514 7.03662 6.47419C7.98803 6.17531 10.1776 7.71568 10.1776 7.71568C11.0881 7.45819 12.0668 7.32484 13.0364 7.32484C14.0061 7.32484 14.9848 7.45819 15.8952 7.71568C15.8952 7.71568 18.0848 6.17071 19.0362 6.47419C19.6599 8.06974 19.273 9.29743 19.1546 9.59631C19.883 10.4102 20.3291 11.0447 20.3291 12.3046C20.3291 16.7418 17.6478 17.0958 15.1031 17.3855C15.5219 17.7488 15.877 18.4385 15.877 19.519C15.877 21.0686 15.8634 22.986 15.8634 23.3631C15.8634 23.662 16.0728 24.0252 16.6509 23.9194C21.2031 22.3929 24.2895 18.0293 24.2895 12.9299C24.2895 6.55236 19.1683 1.71054 12.8543 1.71054ZM6.13529 17.5694C6.07611 17.6154 6.08976 17.7212 6.16715 17.8086C6.23999 17.8821 6.34469 17.9143 6.40387 17.8545C6.46305 17.8086 6.44939 17.7028 6.372 17.6154C6.29917 17.5419 6.19447 17.5097 6.13529 17.5694ZM5.64365 17.197C5.61178 17.2568 5.6573 17.3303 5.74835 17.3763C5.82118 17.4223 5.91223 17.4085 5.94409 17.3441C5.97596 17.2844 5.93044 17.2108 5.83939 17.1648C5.74835 17.1372 5.67551 17.151 5.64365 17.197ZM7.11856 18.8339C7.04573 18.8937 7.07304 19.0316 7.17774 19.119C7.28244 19.2248 7.41446 19.2386 7.47364 19.165C7.53281 19.1052 7.5055 18.9673 7.41446 18.8799C7.31431 18.7742 7.17774 18.7604 7.11856 18.8339ZM6.59961 18.158C6.52678 18.204 6.52678 18.3235 6.59961 18.4293C6.67245 18.5351 6.79536 18.581 6.85454 18.5351C6.92737 18.4753 6.92737 18.3557 6.85454 18.25C6.7908 18.1442 6.67245 18.0982 6.59961 18.158Z" fill="#EED9C3"/>
</svg>
