<svg width="49" height="49" viewBox="0 0 49 49" fill="none" xmlns="http://www.w3.org/2000/svg">
<path d="M8.78298 1.82843C7.22088 0.26633 4.68822 0.266332 3.12612 1.82843L1.82843 3.12612C0.266336 4.68822 0.266336 7.22088 1.82843 8.78297L14.717 21.6716C16.2791 23.2337 16.2791 25.7663 14.717 27.3284L1.82843 40.217C0.266338 41.7791 0.266338 44.3118 1.82843 45.8739L3.12613 47.1716C4.68822 48.7337 7.22088 48.7337 8.78298 47.1716L21.6716 34.283C23.2337 32.7209 25.7663 32.7209 27.3284 34.283L40.217 47.1716C41.7791 48.7337 44.3118 48.7337 45.8739 47.1716L47.1716 45.8739C48.7337 44.3118 48.7337 41.7791 47.1716 40.217L34.283 27.3284C32.7209 25.7663 32.7209 23.2337 34.283 21.6716L47.1716 8.78297C48.7337 7.22088 48.7337 4.68821 47.1716 3.12612L45.8739 1.82843C44.3118 0.266329 41.7791 0.266328 40.217 1.82843L27.3284 14.717C25.7663 16.2791 23.2337 16.2791 21.6716 14.717L8.78298 1.82843Z" fill="#111827"/>
</svg>
