<svg width="75" height="75" viewBox="0 0 75 75" fill="none" xmlns="http://www.w3.org/2000/svg">
<path d="M10.2518 1.07913L20.346 6.30779V15.821C27.2449 12.0448 39.7356 7.68757 54.1687 15.821V6.30779L64.2086 1.07913L59.2248 21.7759L54.1687 26.7867V33.3225L58.2858 49.0085L52.8748 60.4099L53.3741 62.298L47.6977 66.5826L47.9569 67.9624L37.2665 73.6994L26.5913 67.9624L26.8519 66.5826L21.1448 62.298L21.6468 60.4099L16.2066 49.0085L20.346 33.3225V26.7867L15.2626 21.7759L10.2518 1.07913Z" fill="#EED9C3"/>
<path d="M20.346 6.30779L10.2518 1.07913L15.2626 21.7759L20.346 26.7867V30.0546V33.3225L21.5212 35.5374L22.6965 37.7523C25.6808 26.9465 33.5807 30.103 37.1939 32.9594C40.7877 30.103 48.8626 26.9465 51.8308 37.7523L54.1687 33.3225V26.7867L59.2248 21.7759L64.2086 1.07913L54.1687 6.30779V15.821C39.7356 7.68757 27.2449 12.0448 20.346 15.821V11.0644V6.30779Z" fill="#E3B261"/>
<path d="M26.5914 67.9624L37.2665 73.6994L47.9569 67.9624L47.6978 66.5826L42.937 41.2381L37.1939 38.406L31.6385 41.2381L26.8519 66.5826L26.5914 67.9624Z" fill="#E6E6E6"/>
<path d="M26.0104 43.9977L21.6468 60.4099L16.2067 49.0085L20.346 33.3225L22.6965 37.7524L26.0104 43.9977Z" fill="#E6E6E6"/>
<path d="M48.5348 43.9977L52.8749 60.4099L58.2858 49.0085L54.1687 33.3225L51.8308 37.7524L48.5348 43.9977Z" fill="#E6E6E6"/>
<circle cx="44.238" cy="34.3392" r="1.67027" fill="#353535"/>
<path d="M26.8818 35.5011C26.8818 33.937 28.1499 32.6689 29.714 32.6689H33.1562C33.7819 32.6689 34.2891 33.1762 34.2891 33.8018V33.8018C34.2891 36.3045 32.2603 38.3333 29.7576 38.3333H28.3633C27.5451 38.3333 26.8818 37.6701 26.8818 36.8519V35.5011Z" fill="#A78347"/>
<path d="M35.1605 41.8191H39.2273V43.7072C39.2273 44.8302 38.3169 45.7406 37.1939 45.7406V45.7406C36.0709 45.7406 35.1605 44.8302 35.1605 43.7072V41.8191Z" fill="#353535"/>
<path d="M31.6385 41.3108L26.0104 44.0703L21.6468 60.4825L21.1448 62.3706L26.8519 66.6552L31.6385 41.3108Z" fill="#D5D5D5"/>
<path d="M42.937 41.3108L48.5348 44.0703L52.8749 60.4825L53.3742 62.3706L47.6977 66.6552L42.937 41.3108Z" fill="#D5D5D5"/>
</svg>
